<?xml version="1.0" encoding="utf-8"?>
<!-- Svg Vector Icons : http://www.onlinewebfonts.com/icon -->
<!DOCTYPE svg PUBLIC "-//W3C//DTD SVG 1.1//EN" "http://www.w3.org/Graphics/SVG/1.1/DTD/svg11.dtd">
<svg version="1.1" xmlns="http://www.w3.org/2000/svg" xmlns:xlink="http://www.w3.org/1999/xlink" x="0px" y="0px" viewBox="0 0 1000 1000" enable-background="new 0 0 1000 1000" xml:space="preserve">
<metadata> Svg Vector Icons : http://www.onlinewebfonts.com/icon </metadata>
<g><path d="M330.6,565.6h65.5l10.9-65.6c0,79.3-11.7,65.6,163.9,65.6c46.2,0,32.8-42.4,32.8-87.4c22.2,16.3,54,97,145.6-18.3c25.8-32.4,18.2-15.1,18.2-69.2c-86.7-20.2-33.3,23.4-109.2,43.7c-48.9-92.3-18.9-55-109.2-98.3c-10,42.9-3.3,54.9-32.8,76.5c1.1-51.5,12-36.5,0-65.6c-29.9,8-18.2-5.4-35.7,40.8c-6.8,18-1,13.6-8,24.8c-3.6-42.4-9.9-28.5-10.9-76.5c-50.2,24-81.5,10.4-105.7,69.1C338.8,447.3,330.6,509.7,330.6,565.6L330.6,565.6z M789.5,631.2c-22-16.2-35.5-35-43.7-65.6H713c4.3,51.3,33.6,75.4,58.1,116.6c19.9,33.4,52.9,78.6,62,112.8H166.8c13.4-50.1,114-165.5,131.1-229.4c-62.6,5.2-78.9,76-144.1,172.7C68.5,864.5,75.5,850,254.2,849.7c214.9-0.4,429.7,0,644.5,0C896.7,759.3,808.7,713.8,789.5,631.2L789.5,631.2z M155.9,500.1c-17-19.5-3.1-3.5-17.9-25.8c-30.6-46.1-23.9-37.3-69.6-61.5c-80,69.5-54.6,193.9-54.6,360.5h98.3c104.9-156.6,115-150.2,86.4-239c-11.5-35.5-14.9-68.5-42.6-88.8L155.9,500.1L155.9,500.1z M844.1,500.1v-54.6c-11.3,13-13,14.8-22,32.6c-25.2,50.1-32.6,91.8-32.6,153.2c27.5,20.1,80,107.5,98.4,142h98.3c0-166.6,25.4-291-54.6-360.5c-46,24.3-38.8,15.3-69.6,61.5C847,496.6,861.1,480.5,844.1,500.1L844.1,500.1z M505.5,336.3c50,0,64.6-53.4,87.4-87.4c-45.6-195.7-236.9-61.4-144,56.4C461,320.7,481.1,336.3,505.5,336.3L505.5,336.3z M46.6,292.5c0,129.6,131.2,132.4,131.2,54.6c0-49,9.1-131.1-65.5-131.1C70.4,216.1,46.6,248.4,46.6,292.5L46.6,292.5z M822.3,292.5c0,195,131.1,86.9,131.1,10.9C953.3,179.1,822.3,194.9,822.3,292.5L822.3,292.5z"/></g>
</svg>